<svg xmlns="http://www.w3.org/2000/svg" viewBox="0 0 64 64" role="img" aria-labelledby="title">
  <title>Pickle</title>
  <defs>
    <linearGradient id="g" x1="0%" y1="0%" x2="0%" y2="100%">
      <stop offset="0%" stop-color="#9be15d"/>
      <stop offset="100%" stop-color="#2ecc71"/>
    </linearGradient>
  </defs>
  <g fill="none" stroke="none">
    <!-- Pickle body -->
    <path
      d="M24 6c4-2 12-1 16 3 5 5 8 15 8 23 0 7-2 13-6 17-4 5-9 7-14 7-4 0-7-2-9-4-3-3-5-7-6-13-1-6 0-13 2-18 2-4 5-12 9-15z"
      fill="url(#g)"
      stroke="#145a32"
      stroke-width="2"
      stroke-linecap="round"
      stroke-linejoin="round"
    />
    <!-- bumps -->
    <circle cx="30" cy="16" r="1.7" fill="#145a32" opacity="0.75"/>
    <circle cx="38" cy="20" r="1.6" fill="#145a32" opacity="0.7"/>
    <circle cx="26" cy="24" r="1.5" fill="#145a32" opacity="0.7"/>
    <circle cx="34" cy="30" r="1.5" fill="#145a32" opacity="0.75"/>
    <circle cx="28" cy="36" r="1.6" fill="#145a32" opacity="0.8"/>
    <circle cx="36" cy="40" r="1.6" fill="#145a32" opacity="0.75"/>
    <circle cx="32" cy="46" r="1.5" fill="#145a32" opacity="0.7"/>
  </g>
</svg>

